<svg version="1" xmlns="http://www.w3.org/2000/svg" width="640" height="640" viewBox="0 0 480.000000 480.000000"><path d="M195.2 19.9c-1.3.3-9.3.5-17.8.4l-15.6-.1-1.2 3c-1.9 4.3-2.1 11.2-1.6 44.8.5 31.8-1 45.4-5.7 52.8-4 6.3-16.4 14.4-27.5 18.1-3.7 1.2-7 2.7-7.3 3.1-.3.5-4.9 2.3-10.3 4-5.3 1.6-12.4 4.3-15.7 5.9-3.3 1.7-9.5 4.6-13.7 6.6-4.3 2-7.8 4-7.8 4.6 0 .5-.7.9-1.5.9s-1.5.3-1.5.8c0 .4-.9 1.2-1.9 1.7-1.1.6-5.8 3.6-10.4 6.8l-8.5 5.9-8.9.3c-9.1.3-14.3 1-20.3 2.5-3.3.9-6.8 4.6-11.5 11.9-.5.9-1.4 1.9-2 2.3-1.3 1-1.6 16.4-.4 21.4.5 2.1 1.2 4.7 1.4 5.8.4 1.8-1 10.5-2.2 13.6-1.2 3.1-1.4 4.6-1.4 10 0 9.2 1.1 15.1 3.6 20.1 4.2 8 10.7 15.8 17.8 21.2 7.7 5.9 14 15.8 20.5 32.2 1.5 4 6.4 11.8 8.9 14.3.7.7 1.3 1.7 1.3 2.1 0 .4 2.8 3.7 6.3 7.3 3.4 3.6 7.8 8.2 9.7 10.4 2 2.1 6.6 6.8 10.4 10.4 3.7 3.6 8 8.1 9.4 10 5.4 6.9 18.6 17.7 27.2 22 2.5 1.2 5.4 3 6.5 4 1.8 1.7 28.4 15.3 38 19.5 6.8 2.9 10.6 4.9 12.3 6.5 1 .8 5.6 3.4 10.2 5.7 4.7 2.4 10 5.6 11.9 7.2 5 4.3 17.8 10.4 32.8 15.7 13.5 4.7 33.3 5.9 48.3 3 12.9-2.5 60.6-24.6 70.6-32.8 2.5-2 5.5-4 6.7-4.4 6.4-1.9 31.3-15.9 36.5-20.4.7-.6 3.5-2.3 6.2-3.7 2.8-1.4 6.2-3.7 7.6-5 1.5-1.3 5.4-4.7 8.8-7.5 5.5-4.5 8.1-7.2 19.1-19.5 4.6-5.1 13.1-22.3 17-34.3 1-3 2.1-6 2.6-6.5.9-1.2 1.6-4.6 2.4-11.5.3-2.5 1-6.5 1.5-9 1.1-4.9 2-12.2 2.5-18.5.1-2.2.3-4.4.4-4.8.1-.4 2.8-3.4 6-6.5 9.3-9 12.2-17.8 12.1-36.2-.1-15-.5-20.2-2.2-24-.9-1.9-2.1-5.1-2.8-7-3.1-8.8-6.7-16.3-9.1-18.9-4.1-4.3-7.3-5.2-24.8-6.6-3.5-.3-6.9-.9-7.5-1.3-.6-.5-2.7-1.5-4.6-2.3-1.9-.7-8.4-4.2-14.5-7.7-15.9-9.1-29.1-15.3-44.5-20.6-21.4-7.5-32.8-14.9-37.7-24.5-1-2-2.1-3.8-2.4-4.1-.3-.3-1.4-3.2-2.5-6.5-1.9-6.2-2.1-11.1-1.1-31.7.8-18.3-1.6-26.3-9-29.9-4.6-2.2-11-3.2-11.9-1.8-.2.4-2.2 1-4.4 1.4-3.3.6-4.8.2-8.3-1.8-2.3-1.4-5.5-3.9-7.2-5.6-1.6-1.7-3.3-3.1-3.7-3.1-.4 0-1.8-1-3.2-2.3-3.5-3.3-11.3-5-18.8-4.2-13.1 1.5-16.4 1.1-21.3-2.4-8.4-6-23.1-11.9-32-12.7-2.2-.2-4.4-.6-5-.7-.5-.2-2-.1-3.3.2z"/></svg>